<?xml version="1.0" standalone="no"?>
<!DOCTYPE svg PUBLIC "-//W3C//DTD SVG 20010904//EN"
 "http://www.w3.org/TR/2001/REC-SVG-20010904/DTD/svg10.dtd">
<svg version="1.0" xmlns="http://www.w3.org/2000/svg"
 width="200.000000pt" height="200.000000pt" viewBox="0 0 200.000000 200.000000"
 preserveAspectRatio="xMidYMid meet">

<g transform="translate(0.000000,200.000000) scale(0.100000,-0.100000)"
fill="#000000" stroke="none">
<path d="M0 1000 l0 -1000 1000 0 1000 0 0 1000 0 1000 -1000 0 -1000 0 0
-1000z m1714 749 c23 -12 52 -35 66 -52 l25 -31 0 -666 0 -666 -25 -31 c-14
-18 -43 -41 -66 -53 -39 -20 -56 -20 -715 -20 -757 0 -710 -5 -774 74 l-30 38
-3 639 c-2 611 -2 642 17 683 21 49 72 92 116 99 17 2 327 5 689 6 651 1 659
1 700 -20z"/>
<path d="M338 1698 c-18 -3 -43 -18 -55 -33 l-23 -26 0 -643 0 -643 23 -21
c13 -13 39 -27 58 -32 20 -6 285 -10 666 -10 565 0 637 2 674 17 71 28 69 6
69 694 0 669 0 664 -58 688 -31 13 -1296 21 -1354 9z m1199 -229 c-1 -4 -29
-36 -62 -71 -323 -343 -495 -539 -495 -563 0 -8 385 -13 484 -6 10 0 33 18 52
38 19 20 36 34 38 32 8 -8 -40 -149 -55 -165 -13 -12 -49 -13 -264 -3 -138 6
-285 8 -327 5 -43 -4 -78 -3 -78 2 0 5 30 45 67 88 37 43 77 90 88 103 11 13
100 114 198 224 97 110 177 206 177 214 0 10 -45 13 -229 13 -126 0 -241 -4
-254 -9 -14 -6 -27 -7 -30 -4 -3 3 6 28 20 57 l25 51 324 0 c178 0 323 -3 321
-6z m-824 -23 c18 -7 45 -28 61 -45 l30 -31 -105 6 c-98 6 -105 5 -124 -15
-18 -20 -18 -25 -4 -49 8 -14 33 -39 56 -55 33 -24 55 -31 110 -34 37 -3 85
-1 106 5 20 6 37 9 37 7 0 -2 -12 -25 -27 -50 -25 -40 -35 -47 -93 -66 -133
-43 -236 -116 -267 -189 -20 -44 -19 -129 0 -166 23 -44 66 -79 122 -100 41
-16 78 -19 210 -19 88 0 177 3 198 7 20 4 37 4 37 0 0 -8 -125 -90 -180 -118
-27 -14 -58 -18 -140 -18 -91 0 -112 4 -160 26 -66 30 -122 91 -144 156 -21
60 -20 155 1 212 21 58 93 160 139 198 l36 30 -30 16 c-38 20 -102 94 -102
118 0 31 36 90 77 129 65 62 96 71 156 45z"/>
</g>
</svg>
